<?xml version="1.0" encoding="UTF-8"?>
<svg version="1.1" xmlns="http://www.w3.org/2000/svg" width="256" height="256">
<path d="M0 0 C0.79599609 1.00659668 1.59199219 2.01319336 2.41210938 3.05029297 C6.0155734 6.65487606 9.2076823 6.69146983 14.1477356 6.70542908 C15.19468597 6.67759842 16.24163635 6.64976776 17.3203125 6.62109375 C18.41536102 6.61497574 19.51040955 6.60885773 20.63864136 6.60255432 C24.13503776 6.57567427 27.62921131 6.50665435 31.125 6.4375 C33.45310192 6.41596149 35.78122977 6.39705431 38.109375 6.38085938 C55.28520479 6.87211415 55.28520479 6.87211415 72 4 C77.96476294 3.46614858 82.95745595 3.44729851 88 7 C92.29406021 11.27385287 94.98034955 14.36403312 95.02734375 20.66796875 C94.99907714 22.17451165 94.96902288 23.68102172 94.9375 25.1875 C94.83050673 33.93776611 95.68174814 42.36074225 97 51 C93.43826523 51.5055539 89.87550181 52.00346114 86.3125 52.5 C85.30509766 52.64308594 84.29769531 52.78617188 83.25976562 52.93359375 C81.79506836 53.13662109 81.79506836 53.13662109 80.30078125 53.34375 C79.40528564 53.46943359 78.50979004 53.59511719 77.5871582 53.72460938 C75.03602639 53.99616516 72.5633257 54.04847897 70 54 C68.1582605 48.35199888 67.45224761 42.91492272 67 37 C60.89104967 35.8427045 55.17643534 36.10431558 48.9921875 36.5234375 C47.94854034 36.58906891 46.90489319 36.65470032 45.82962036 36.72232056 C43.63245188 36.86194367 41.43550078 37.00502588 39.23876953 37.15136719 C35.87970349 37.3746873 32.5200657 37.58666578 29.16015625 37.796875 C27.02079049 37.9342302 24.88146594 38.07222905 22.7421875 38.2109375 C21.2389241 38.30633316 21.2389241 38.30633316 19.70529175 38.40365601 C18.76726715 38.46687042 17.82924255 38.53008484 16.86279297 38.59521484 C16.04229462 38.64930511 15.22179626 38.70339539 14.37643433 38.75912476 C11.87119495 39.01305567 9.45998886 39.46825188 7 40 C9.34392317 49.14028239 12.18080051 58.11253653 15.07861328 67.08862305 C15.87377234 69.55868641 16.65760993 72.03217073 17.44140625 74.50585938 C19.84421156 81.99896742 22.3367095 88.98743594 26.0625 95.9440918 C28.74247092 101.82118427 27.92722969 109.27278066 26.40625 115.38671875 C22.13180626 125.14274081 12.01638216 133.12879363 4.58984375 140.5078125 C3.73693253 141.35930878 2.8840213 142.21080505 2.00526428 143.08810425 C-0.68162229 145.76945663 -3.37198962 148.44728433 -6.0625 151.125 C-7.90062344 152.95809991 -9.73851614 154.79143122 -11.57617188 156.625 C-16.04812131 161.0860079 -20.52292291 165.54413855 -25 170 C-24.505 170.37125 -24.01 170.7425 -23.5 171.125 C-22 173 -22 173 -22 179 C-48.07 179 -74.14 179 -101 179 C-101 172 -101 172 -100 171 C-98.33382885 170.95936168 -96.66611905 170.957279 -95 171 C-95.02094727 170.02764404 -95.04189453 169.05528809 -95.06347656 168.0534668 C-95.13668232 164.39509203 -95.18208744 160.73677989 -95.21972656 157.07788086 C-95.23966084 155.50387635 -95.26681871 153.92994411 -95.30175781 152.35620117 C-95.55106507 140.82574048 -95.44311005 129.50659122 -86.96484375 120.60546875 C-82.57942361 117.02215329 -77.51924632 114.57026719 -72.5 112 C-71.27648365 111.36031507 -70.05351158 110.71958813 -68.83105469 110.07788086 C-54.99343871 102.84714017 -41.00233082 95.90495489 -27 89 C-27.45680814 85.45813491 -27.9155284 81.91652053 -28.375 78.375 C-28.57863159 76.80322998 -28.57863159 76.80322998 -28.78637695 75.19970703 C-29.67644818 68.36863406 -30.62364376 61.55152606 -31.66796875 54.7421875 C-31.98436256 52.12914689 -32.06259185 49.62885783 -32 47 C-32.59683594 46.73445313 -33.19367188 46.46890625 -33.80859375 46.1953125 C-39.08558511 43.31695358 -42.70302095 37.94072258 -44.52734375 32.29296875 C-46.51378525 22.65626493 -44.92839445 14.28543112 -39.75 6 C-30.82428889 -5.7657101 -11.99977238 -8.93860596 0 0 Z " fill="#E68C22" transform="translate(122,10)"/>
<path d="M0 0 C25.74 0 51.48 0 78 0 C79.21213658 2.42427315 79.36374105 4.3935899 79.66430664 7.09228516 C79.78435562 8.15323395 79.9044046 9.21418274 80.02809143 10.30728149 C80.15417282 11.45626923 80.28025421 12.60525696 80.41015625 13.7890625 C80.54191757 14.96262299 80.67367889 16.13618347 80.80943298 17.3453064 C81.23069709 21.10481467 81.64665396 24.86488895 82.0625 28.625 C82.34665664 31.16930979 82.63115738 33.71358117 82.91601562 36.2578125 C83.61467491 42.50476769 84.30897424 48.75219606 85 55 C86.06541016 55.09087891 86.06541016 55.09087891 87.15234375 55.18359375 C88.07144531 55.26738281 88.99054688 55.35117188 89.9375 55.4375 C90.85402344 55.51871094 91.77054687 55.59992188 92.71484375 55.68359375 C95 56 95 56 96 57 C96 58.98 96 60.96 96 63 C58.38 63 20.76 63 -18 63 C-18 57 -18 57 -17 56 C-13.66672158 55.8575522 -10.33546107 55.95777897 -7 56 C-6.95029053 55.1332666 -6.90058105 54.2665332 -6.84936523 53.37353516 C-6.26054355 43.8050253 -5.38200842 34.29000195 -4.32543945 24.76220703 C-4.05903334 22.34352647 -3.80384919 19.92381064 -3.54882812 17.50390625 C-3.37828289 15.94784213 -3.20708361 14.39184952 -3.03515625 12.8359375 C-2.96112076 12.12134369 -2.88708527 11.40674988 -2.81080627 10.67050171 C-2.35075406 6.64029568 -1.54352039 3.85880098 0 0 Z " fill="#555555" transform="translate(22,193)"/>
<path d="M0 0 C0 1.98 0 3.96 0 6 C1.11375 5.79375 2.2275 5.5875 3.375 5.375 C5.169375 5.189375 5.169375 5.189375 7 5 C9.64833708 7.64833708 9.44850203 9.31108361 9.75 13 C9.89695312 14.60875 9.89695312 14.60875 10.046875 16.25 C10 19 10 19 8 21 C5.64916992 21.50244141 5.64916992 21.50244141 2.73046875 21.8515625 C1.14975586 22.04492188 1.14975586 22.04492188 -0.46289062 22.2421875 C-1.56826172 22.36851563 -2.67363281 22.49484375 -3.8125 22.625 C-4.90626953 22.7590625 -6.00003906 22.893125 -7.12695312 23.03125 C-11.78114323 23.58714352 -16.30723708 24.08009039 -21 24 C-20.80083984 24.93005859 -20.80083984 24.93005859 -20.59765625 25.87890625 C-18.99499432 33.91561245 -18.41898338 41.82982404 -18 50 C-16.515 50.495 -16.515 50.495 -15 51 C-14.67 55.95 -14.34 60.9 -14 66 C-20 66 -20 66 -21.65917969 64.56640625 C-22.07586914 63.90511719 -22.49255859 63.24382812 -22.921875 62.5625 C-23.38980469 61.83160156 -23.85773438 61.10070312 -24.33984375 60.34765625 C-24.80519531 59.57292969 -25.27054688 58.79820313 -25.75 58 C-26.23082031 57.25621094 -26.71164063 56.51242188 -27.20703125 55.74609375 C-31.83653773 48.33114604 -33.16282334 41.62729768 -33.625 33 C-33.66367188 32.32066406 -33.70234375 31.64132813 -33.7421875 30.94140625 C-33.83496296 29.29464183 -33.91848998 27.64736045 -34 26 C-34.804375 25.855625 -35.60875 25.71125 -36.4375 25.5625 C-39 25 -39 25 -40 24 C-40.23427778 21.98405418 -40.41336124 19.961526 -40.5625 17.9375 C-40.64628906 16.83277344 -40.73007813 15.72804688 -40.81640625 14.58984375 C-40.90728516 13.30787109 -40.90728516 13.30787109 -41 12 C-37.77208445 9.8480563 -36.71599191 9.79913557 -33 10 C-33.33 8.02 -33.66 6.04 -34 4 C-30.68784607 3.51842161 -27.37521694 3.04018889 -24.0625 2.5625 C-22.67321289 2.36043945 -22.67321289 2.36043945 -21.25585938 2.15429688 C-6.2808689 0 -6.2808689 0 0 0 Z " fill="#545454" transform="translate(223,64)"/>
<path d="M0 0 C3.96 0 7.92 0 12 0 C13.21213658 2.42427315 13.36374105 4.3935899 13.66430664 7.09228516 C13.78435562 8.15323395 13.9044046 9.21418274 14.02809143 10.30728149 C14.15417282 11.45626923 14.28025421 12.60525696 14.41015625 13.7890625 C14.60779823 15.54940323 14.60779823 15.54940323 14.80943298 17.3453064 C15.23069709 21.10481467 15.64665396 24.86488895 16.0625 28.625 C16.34665664 31.16930979 16.63115738 33.71358117 16.91601562 36.2578125 C17.61467491 42.50476769 18.30897424 48.75219606 19 55 C20.06541016 55.09087891 20.06541016 55.09087891 21.15234375 55.18359375 C22.07144531 55.26738281 22.99054688 55.35117188 23.9375 55.4375 C24.85402344 55.51871094 25.77054688 55.59992188 26.71484375 55.68359375 C29 56 29 56 30 57 C30 58.98 30 60.96 30 63 C20.1 63 10.2 63 0 63 C0 42.21 0 21.42 0 0 Z " fill="#303030" transform="translate(88,193)"/>
<path d="M0 0 C4.17942114 2.94459217 7.17089995 6.04199976 8.19921875 11.18359375 C8.50974802 17.5333819 6.29151338 20.98934447 2.1875 25.75 C-1.38194037 28.69866813 -6.05189536 28.38650812 -10.44921875 28.3515625 C-14.97178053 27.68295504 -17.45961266 25.43801585 -20.25 21.9375 C-22.67176269 17.93632686 -22.97027663 13.52026005 -22.25 8.9375 C-17.47593178 -0.61063643 -9.75946966 -3.19059585 0 0 Z " fill="#585653" transform="translate(130.25,101.0625)"/>
<path d="M0 0 C3.24130631 1.63088886 5.00832925 3.08908944 7.16796875 6.05859375 C8.43019533 10.16083014 8.41044508 13.2092671 7.16796875 17.30859375 C4.76962845 21.24872425 2.64613741 23.16301572 -1.83203125 24.30859375 C-5.36491958 24.83198461 -7.71586353 25.01062781 -10.80078125 23.0703125 C-13.81067797 20.58468058 -15.57646458 19.07529375 -16.83203125 15.30859375 C-17.22747623 11.11687694 -17.10164026 8.82784073 -15.14453125 5.05859375 C-10.92653363 0.04259658 -6.52422933 -2.4622358 0 0 Z " fill="#585653" transform="translate(109.83203125,21.69140625)"/>
<path d="M0 0 C1.07689831 2.15379663 1.29769483 3.67925348 1.5625 6.0625 C1.64628906 6.77535156 1.73007813 7.48820312 1.81640625 8.22265625 C1.87699219 9.13917969 1.93757812 10.05570313 2 11 C2.04946777 11.64171143 2.09893555 12.28342285 2.14990234 12.94458008 C2.43172969 19.40157361 0.77652246 24.57234534 -1.5 30.5625 C-1.83386719 31.47580078 -2.16773438 32.38910156 -2.51171875 33.33007812 C-3.32840613 35.55846798 -4.15788283 37.78112363 -5 40 C-6.98 40 -8.96 40 -11 40 C-11.36086872 37.52163716 -11.71398157 35.04260213 -12.0625 32.5625 C-12.16626953 31.85544922 -12.27003906 31.14839844 -12.37695312 30.41992188 C-12.62689163 28.61864093 -12.81801314 26.80940959 -13 25 C-12.67 24.67 -12.34 24.34 -12 24 C-11.98332326 22.36286853 -12.03700518 20.72489931 -12.12109375 19.08984375 C-12.16943359 18.10048828 -12.21777344 17.11113281 -12.26757812 16.09179688 C-12.32365234 15.05087891 -12.37972656 14.00996094 -12.4375 12.9375 C-12.51581055 11.37032227 -12.51581055 11.37032227 -12.59570312 9.77148438 C-12.72583296 7.18071764 -12.86081158 4.59029334 -13 2 C-11.39658445 1.66307215 -9.79223445 1.33058907 -8.1875 1 C-7.29417969 0.814375 -6.40085938 0.62875 -5.48046875 0.4375 C-3 0 -3 0 0 0 Z " fill="#545454" transform="translate(228,88)"/>
<path d="M0 0 C2.375 1.625 2.375 1.625 4 4 C4.48288863 7.31123632 4.29618989 9.296549 3 12.375 C0.28967961 14.57713531 -1.70883166 14.51345108 -5.125 14.3125 C-7 14 -7 14 -9 12.9375 C-10.60856522 9.82090489 -10.42213381 7.43737531 -10 4 C-7.26646839 -0.10029741 -4.80388991 -0.80064832 0 0 Z " fill="#595653" transform="translate(202,25)"/>
<path d="M0 0 C0.99 0 1.98 0 3 0 C4.07689831 2.15379663 4.29769483 3.67925348 4.5625 6.0625 C4.64628906 6.77535156 4.73007813 7.48820312 4.81640625 8.22265625 C4.87699219 9.13917969 4.93757812 10.05570313 5 11 C5.04946777 11.64171143 5.09893555 12.28342285 5.14990234 12.94458008 C5.43172969 19.40157361 3.77652246 24.57234534 1.5 30.5625 C1.16613281 31.47580078 0.83226562 32.38910156 0.48828125 33.33007812 C-0.32840613 35.55846798 -1.15788283 37.78112363 -2 40 C-2.66 40 -3.32 40 -4 40 C-3.56945326 35.95286063 -2.87536138 32.49918912 -1.4375 28.6875 C1.37847484 20.54177764 -0.08259465 12.01501709 -0.87890625 3.58984375 C-0.91886719 2.73519531 -0.95882812 1.88054687 -1 1 C-0.67 0.67 -0.34 0.34 0 0 Z " fill="#353535" transform="translate(225,88)"/>
</svg>
