<?xml version="1.0" encoding="UTF-8"?>
<svg xmlns="http://www.w3.org/2000/svg" width="187" height="187" viewBox="0 0 187 187" fill="none">
  <path fill-rule="evenodd" clip-rule="evenodd" d="M93.5493 0.0526151C75.061 0.048087 56.9866 5.52641 41.6119 15.7947C26.2373 26.0629 14.2529 40.66 7.17463 57.7396C0.0963195 74.8193 -1.75823 93.6144 1.84588 111.748C5.45 129.882 14.3507 146.539 27.4224 159.614C40.494 172.689 57.1494 181.594 75.2822 185.202C93.4149 188.811 112.211 186.961 129.292 179.887C146.373 172.813 160.973 160.832 171.245 145.46C181.517 130.088 187 112.015 187 93.5263C186.976 68.747 177.123 44.9891 159.604 27.4653C142.084 9.94148 118.329 0.0829181 93.5493 0.0526151ZM93.5493 169.83C78.4524 169.83 63.6944 165.353 51.1421 156.965C38.5898 148.577 28.8069 136.655 23.0306 122.707C17.2543 108.759 15.744 93.4109 18.6909 78.6044C21.6378 63.7979 28.9097 50.1978 39.5864 39.5243C50.2632 28.8507 63.8654 21.5832 78.6728 18.6407C93.4802 15.6982 108.827 17.2129 122.774 22.9934C136.72 28.7739 148.64 38.5605 157.024 51.1153C165.408 63.6702 169.88 78.4294 169.876 93.5263C169.87 113.772 161.828 133.187 147.516 147.507C133.205 161.827 113.795 169.88 93.5493 169.899V169.83ZM111.902 51.1833C103.685 51.1833 95.6529 53.6199 88.8211 58.1847C81.9892 62.7496 76.6645 69.2379 73.5202 76.829C70.3758 84.4202 69.553 92.7732 71.1559 100.832C72.7589 108.891 76.7158 116.293 82.5258 122.103C88.3358 127.913 95.7382 131.87 103.797 133.473C111.856 135.076 120.209 134.253 127.8 131.109C135.391 127.964 141.879 122.64 146.444 115.808C151.009 108.976 153.445 100.944 153.445 92.7272C153.445 81.709 149.068 71.1422 141.277 63.3512C133.487 55.5602 122.92 51.1833 111.902 51.1833ZM111.902 117.089C107.083 117.089 102.373 115.66 98.3669 112.983C94.3606 110.307 91.2379 106.502 89.394 102.05C87.5501 97.5986 87.0679 92.7002 88.0079 87.9744C88.9479 83.2486 91.2679 78.9077 94.675 75.5007C98.0821 72.0936 102.423 69.7733 107.149 68.8333C111.875 67.8933 116.773 68.3757 121.225 70.2196C125.676 72.0635 129.481 75.1861 132.158 79.1924C134.835 83.1987 136.264 87.9088 136.264 92.7272C136.258 99.1865 133.689 105.38 129.122 109.947C124.554 114.514 118.361 117.083 111.902 117.089ZM43.1944 59.173H61.5695V127.081H43.1944V59.173Z" fill="#5D4FF2"></path>
</svg>
